<svg width="888" height="145" viewBox="0 0 888 145" fill="none" xmlns="http://www.w3.org/2000/svg">
<path d="M24.1211 142.188C17.4154 142.188 12.3047 141.341 8.78906 139.648C5.33854 137.956 2.99479 135.189 1.75781 131.348C0.585938 127.507 0 122.396 0 116.016V28.3203C0 21.8099 0.585938 16.6667 1.75781 12.8906C2.99479 9.04948 5.33854 6.3151 8.78906 4.6875C12.3047 2.99479 17.4154 2.14844 24.1211 2.14844H54.1016C68.099 2.14844 80.3385 4.23177 90.8203 8.39844C101.367 12.5651 109.57 19.6289 115.43 29.5898C121.289 39.4857 124.219 53.0924 124.219 70.4102C124.219 87.7279 121.289 101.66 115.43 112.207C109.57 122.689 101.367 130.306 90.8203 135.059C80.3385 139.811 68.099 142.188 54.1016 142.188H24.1211ZM42.6758 27.832C38.3789 27.832 35.4492 28.7435 33.8867 30.5664C32.3242 32.3893 31.543 35.5143 31.543 39.9414V104.395C31.543 108.757 32.3242 111.882 33.8867 113.77C35.4492 115.658 38.3789 116.602 42.6758 116.602H47.168C61.1003 116.602 71.875 113.184 79.4922 106.348C87.1745 99.5117 91.0156 87.6628 91.0156 70.8008C91.0156 59.5378 89.2578 50.8138 85.7422 44.6289C82.2917 38.3789 77.2786 34.0169 70.7031 31.543C64.1276 29.069 56.2174 27.832 46.9727 27.832H42.6758Z" fill="#50BE78"/>
<path d="M210.543 137.012C210.543 138.965 210.12 140.332 209.273 141.113C208.492 141.829 207.125 142.188 205.172 142.188H184.371C182.418 142.188 181.018 141.829 180.172 141.113C179.391 140.332 179 138.965 179 137.012V28.3203C179 21.8099 179.586 16.6667 180.758 12.8906C181.995 9.04948 184.339 6.3151 187.789 4.6875C191.305 2.99479 196.415 2.14844 203.121 2.14844H229C262.984 2.14844 279.977 15.2018 279.977 41.3086C279.977 49.2513 278.642 55.7617 275.973 60.8398C273.303 65.918 269.983 69.8893 266.012 72.7539C262.04 75.5534 258.134 77.6693 254.293 79.1016V79.5898C258.655 82.4544 262.789 86.2305 266.695 90.918C270.667 95.5404 274.247 100.586 277.438 106.055C280.628 111.458 283.329 116.829 285.543 122.168C287.757 127.441 289.286 132.161 290.133 136.328C290.523 138.281 290.523 139.746 290.133 140.723C289.807 141.699 288.701 142.188 286.812 142.188H264.254C262.561 142.188 261.064 141.829 259.762 141.113C258.525 140.397 257.385 138.737 256.344 136.133C251.396 123.698 245.699 113.574 239.254 105.762C232.809 97.8841 226.591 91.569 220.602 86.8164C216.76 83.7565 214.84 81.5755 214.84 80.2734C214.84 79.2318 215.458 77.7995 216.695 75.9766C217.477 74.8698 218.616 73.5352 220.113 71.9727C221.611 70.4102 222.913 69.2383 224.02 68.457C225.126 67.6758 226.005 67.1875 226.656 66.9922C227.372 66.7969 228.447 66.6992 229.879 66.6992C234.697 66.6992 238.701 65.0391 241.891 61.7188C245.146 58.3984 246.773 53.1576 246.773 45.9961C246.773 39.2253 245.048 34.2773 241.598 31.1523C238.212 27.9622 233.525 26.3672 227.535 26.3672H221.676C217.379 26.3672 214.449 27.2786 212.887 29.1016C211.324 30.9245 210.543 34.0495 210.543 38.4766V137.012Z" fill="#5A96FF"/>
<path d="M415.391 9.86328C418.971 14.8763 422.617 21.3542 426.328 29.2969C430.104 37.1745 433.75 45.8333 437.266 55.2734C440.781 64.7135 443.939 74.3815 446.738 84.2773C449.603 94.1081 451.947 103.581 453.77 112.695C455.592 121.81 456.634 129.915 456.895 137.012C456.96 140.462 455.397 142.188 452.207 142.188H428.574C425.514 142.188 423.919 140.658 423.789 137.598C423.529 130.306 422.357 121.452 420.273 111.035H366.953C365.13 121.191 364.089 130.046 363.828 137.598C363.698 140.658 362.038 142.188 358.848 142.188H335.703C334.531 142.188 333.555 141.862 332.773 141.211C331.992 140.495 331.634 139.29 331.699 137.598C332.025 130.371 333.066 122.168 334.824 112.988C336.647 103.743 338.991 94.1732 341.855 84.2773C344.72 74.3815 347.91 64.7135 351.426 55.2734C354.941 45.7682 358.587 37.0768 362.363 29.1992C366.139 21.3216 369.818 14.8763 373.398 9.86328C375.286 7.19401 377.272 5.24089 379.355 4.00391C381.504 2.76693 384.141 2.14844 387.266 2.14844H401.328C404.518 2.14844 407.188 2.76693 409.336 4.00391C411.484 5.24089 413.503 7.19401 415.391 9.86328ZM393.32 33.0078C389.023 39.8438 385.085 48.0143 381.504 57.5195C377.923 67.0247 374.831 76.7904 372.227 86.8164H414.609C411.875 76.7904 408.717 67.0247 405.137 57.5195C401.556 48.0143 397.812 39.8438 393.906 33.0078H393.32Z" fill="#F5B43C"/>
<path d="M541.543 39.9414V62.207H576.211C577.773 62.207 578.945 62.4674 579.727 62.9883C581.419 64.1602 583.177 65.5599 585 67.1875C586.823 68.8151 588.743 70.7682 590.762 73.0469C591.413 73.8932 591.738 74.5768 591.738 75.0977C591.738 75.6836 591.413 76.3346 590.762 77.0508C588.743 79.3294 586.823 81.2826 585 82.9102C583.177 84.5378 581.419 85.9375 579.727 87.1094C578.815 87.6302 577.643 87.8906 576.211 87.8906H541.543V137.012C541.543 138.965 541.12 140.332 540.273 141.113C539.492 141.829 538.125 142.188 536.172 142.188H515.371C513.418 142.188 512.018 141.829 511.172 141.113C510.391 140.332 510 138.965 510 137.012V28.3203C510 21.8099 510.586 16.6667 511.758 12.8906C512.995 9.04948 515.339 6.3151 518.789 4.6875C522.305 2.99479 527.415 2.14844 534.121 2.14844H580.215C581.777 2.14844 582.949 2.40885 583.73 2.92969C585.423 4.10156 587.181 5.5013 589.004 7.12891C590.827 8.75651 592.747 10.7096 594.766 12.9883C595.417 13.8346 595.742 14.5182 595.742 15.0391C595.742 15.625 595.417 16.276 594.766 16.9922C592.747 19.2708 590.827 21.224 589.004 22.8516C587.181 24.4792 585.423 25.8789 583.73 27.0508C582.819 27.5716 581.647 27.832 580.215 27.832H552.676C548.379 27.832 545.449 28.7435 543.887 30.5664C542.324 32.3893 541.543 35.5143 541.543 39.9414Z" fill="black"/>
<path d="M706.547 137.012C706.547 138.965 706.124 140.332 705.277 141.113C704.496 141.829 703.129 142.188 701.176 142.188H680.375C678.422 142.188 677.022 141.829 676.176 141.113C675.395 140.332 675.004 138.965 675.004 137.012V27.832H645.902C644.34 27.832 643.168 27.5716 642.387 27.0508C640.694 25.8789 638.936 24.4792 637.113 22.8516C635.355 21.224 633.435 19.2708 631.352 16.9922C630.701 16.1458 630.375 15.4622 630.375 14.9414C630.375 14.3555 630.701 13.7044 631.352 12.9883C633.435 10.7096 635.355 8.75651 637.113 7.12891C638.936 5.5013 640.694 4.10156 642.387 2.92969C643.298 2.40885 644.47 2.14844 645.902 2.14844H735.746C737.309 2.14844 738.48 2.40885 739.262 2.92969C740.954 4.10156 742.712 5.5013 744.535 7.12891C746.358 8.75651 748.279 10.7096 750.297 12.9883C750.948 13.8346 751.273 14.5182 751.273 15.0391C751.273 15.625 750.948 16.276 750.297 16.9922C748.279 19.2708 746.358 21.224 744.535 22.8516C742.712 24.4792 740.954 25.8789 739.262 27.0508C738.35 27.5716 737.178 27.832 735.746 27.832H706.547V137.012Z" fill="#FF92C2"/>
<path d="M834.891 144.531C826.622 144.531 819.754 143.783 814.285 142.285C808.882 140.788 804.52 138.932 801.199 136.719C797.944 134.44 795.438 132.194 793.68 129.98C793.094 129.134 792.573 128.32 792.117 127.539C791.661 126.758 791.336 125.879 791.141 124.902C790.88 123.6 790.62 121.908 790.359 119.824C790.099 117.676 790.066 115.202 790.262 112.402C790.327 111.23 790.555 110.417 790.945 109.961C791.401 109.44 792.15 109.049 793.191 108.789C795.079 108.333 797.521 107.943 800.516 107.617C803.576 107.227 805.757 107.031 807.059 107.031C808.426 107.031 809.533 107.292 810.379 107.812C811.225 108.333 812.234 109.212 813.406 110.449C814.708 111.816 816.954 113.574 820.145 115.723C823.335 117.806 828.25 118.848 834.891 118.848C841.271 118.848 846.089 117.513 849.344 114.844C852.599 112.174 854.227 108.464 854.227 103.711C854.227 101.172 853.445 98.7956 851.883 96.582C850.385 94.3034 847.618 92.0573 843.582 89.8438C839.546 87.5651 833.784 85.1888 826.297 82.7148C813.927 78.5482 805.008 73.3724 799.539 67.1875C794.07 61.0026 791.336 52.4089 791.336 41.4062C791.336 32.2917 793.549 24.6745 797.977 18.5547C802.404 12.4349 808.523 7.8125 816.336 4.6875C824.148 1.5625 833.165 0 843.387 0C851.264 0 857.775 0.94401 862.918 2.83203C868.126 4.65495 872.163 6.73828 875.027 9.08203C877.892 11.3607 879.747 13.2161 880.594 14.6484C881.115 15.4948 881.44 16.1458 881.57 16.6016C881.766 16.9922 881.896 17.5456 881.961 18.2617C882.156 20.2799 882.221 22.526 882.156 25C882.091 27.474 881.863 30.2734 881.473 33.3984C881.277 34.4401 880.919 35.1562 880.398 35.5469C879.943 35.8724 879.227 36.0352 878.25 36.0352C871.935 36.1654 867.052 35.8398 863.602 35.0586C862.234 34.7331 861.323 34.4076 860.867 34.082C860.411 33.7565 859.826 33.2357 859.109 32.5195C858.068 31.2826 856.408 29.8503 854.129 28.2227C851.915 26.5299 848.335 25.6836 843.387 25.6836C836.551 25.6836 831.701 27.2461 828.836 30.3711C825.971 33.431 824.539 36.8815 824.539 40.7227C824.539 45.2799 826.655 48.8607 830.887 51.4648C835.118 54.0039 841.792 56.901 850.906 60.1562C858.523 62.8255 865.066 65.7227 870.535 68.8477C876.004 71.9727 880.171 75.9766 883.035 80.8594C885.965 85.7422 887.43 92.1875 887.43 100.195C887.43 110.156 885.118 118.424 880.496 125C875.939 131.576 869.689 136.491 861.746 139.746C853.868 142.936 844.917 144.531 834.891 144.531Z" fill="#EB6464"/>
</svg>
